<?xml version="1.0" encoding="UTF-8" standalone="no"?>
<svg
   xmlns:dc="http://purl.org/dc/elements/1.1/"
   xmlns:cc="http://creativecommons.org/ns#"
   xmlns:rdf="http://www.w3.org/1999/02/22-rdf-syntax-ns#"
   xmlns:svg="http://www.w3.org/2000/svg"
   xmlns="http://www.w3.org/2000/svg"
   xmlns:sodipodi="http://sodipodi.sourceforge.net/DTD/sodipodi-0.dtd"
   xmlns:inkscape="http://www.inkscape.org/namespaces/inkscape"
   inkscape:version="1.0 (4035a4fb49, 2020-05-01)"
   sodipodi:docname="reboot.svg"
   version="1.1"
   width="96"
   viewBox="0 0 96 96"
   style=""
   height="96"
   id="svg6">
  <metadata
     id="metadata8">
    <rdf:RDF>
      <cc:Work
         rdf:about="">
        <dc:format>image/svg+xml</dc:format>
        <dc:type
           rdf:resource="http://purl.org/dc/dcmitype/StillImage" />
      </cc:Work>
    </rdf:RDF>
  </metadata>
  <defs
     id="defs6" />
  <sodipodi:namedview
     inkscape:current-layer="svg6"
     inkscape:window-maximized="0"
     inkscape:window-y="23"
     inkscape:window-x="0"
     inkscape:cy="53.565761"
     inkscape:cx="50.75888"
     inkscape:zoom="4.5989583"
     showgrid="false"
     id="namedview4"
     inkscape:window-height="1057"
     inkscape:window-width="771"
     inkscape:pageshadow="2"
     inkscape:pageopacity="0"
     guidetolerance="10"
     gridtolerance="10"
     objecttolerance="10"
     borderopacity="1"
     bordercolor="#666666"
     pagecolor="#ffffff" />
  <path
     style="fill:#fafafa"
     d="m48 0a48 48 0 0 0 -24 7l21 21 3-3-18-17a44 44 0 0 1 18-4 44 44 0 0 1 44 44 44 44 0 0 1 -6 21l3 3a48 48 0 0 0 7-24 48 48 0 0 0 -48-48zm-41 24a48 48 0 0 0 -7 24 48 48 0 0 0 48 48 48 48 0 0 0 24-7l-21-21-3 3 18 17a44 44 0 0 1 -18 4 44 44 0 0 1 -44-44 44 44 0 0 1 6-21z"
     id="path4" />
  <path
     id="path10"
     d="m 87.410087,70.317489 -1.317771,-1.342709 1.369251,-2.731764 c 1.567835,-3.127961 2.99339,-7.234375 3.796984,-10.93748 0.794248,-3.660033 0.788452,-11.972237 -0.01101,-15.779857 C 88.0073,24.093057 77.234622,11.660502 62.615433,6.4818628 54.759745,3.6990973 45.703688,3.2552012 37.777351,5.2643867 34.756837,6.0300333 30.173406,7.6795138 30.173406,8.000887 c 0,0.1342313 3.943782,3.960174 8.76396,8.502095 4.820178,4.541921 8.763959,8.403896 8.763959,8.582167 0,0.401843 -2.222484,2.601496 -2.628499,2.601496 -0.341894,0 -20.74206,-20.3379119 -20.74206,-20.6787626 0,-0.3393679 5.670302,-3.1113045 8.302699,-4.0587876 C 38.961429,0.67145896 46.237895,-0.32100201 52.186978,0.28212739 71.75945,2.266422 87.395708,14.682843 93.483228,33.074605 c 1.724037,5.208695 2.300656,8.865784 2.302009,14.600019 0.0012,5.547986 -0.517061,8.788253 -2.263678,14.149908 -1.130004,3.468812 -4.07728,9.835666 -4.553025,9.835666 -0.132373,0 -0.833674,-0.604218 -1.558447,-1.342709 z"
     style="fill:#37c8ab;stroke-width:0.307507" />
  <path
     id="path12"
     d="M 42.681265,95.650561 C 31.423789,94.224068 21.997688,89.652916 14.167868,81.823095 1.2098503,68.865076 -3.1733552,50.395068 2.6876617,33.447649 c 1.0194076,-2.947667 3.4959922,-8.314297 4.1441329,-8.980121 0.1848405,-0.189883 0.7988479,0.211164 1.6944096,1.106726 l 1.404522,1.404522 -1.3742433,2.737116 c -1.5924608,3.171747 -2.9839417,7.167991 -3.790496,10.886062 -0.7997821,3.686852 -0.7991142,12.308943 0.00123,15.990383 2.4223069,11.142056 8.3395881,20.336825 17.4013151,27.039624 5.394826,3.990459 13.396016,7.181647 20.132285,8.029547 5.518293,0.694591 12.980088,0.09665 17.854548,-1.43074 2.547919,-0.798381 5.688886,-2.0491 5.688886,-2.26529 0,-0.111625 -3.943782,-3.916724 -8.76396,-8.455773 -4.820178,-4.539048 -8.76396,-8.34083 -8.76396,-8.448399 0,-0.107569 0.62523,-0.809196 1.389401,-1.559173 l 1.389402,-1.363595 10.296309,10.292868 c 5.662969,5.661078 10.250773,10.429478 10.195117,10.596442 -0.179058,0.537179 -6.270152,3.405961 -9.382298,4.418875 -1.659639,0.540164 -4.390935,1.256703 -6.069547,1.592307 -3.488942,0.697544 -10.323118,1.008194 -13.45346,0.611531 z"
     style="fill:#37c8ab;stroke-width:0.307507" />
</svg>
