<?xml version="1.0" encoding="UTF-8" standalone="no"?>
<svg
   xmlns:dc="http://purl.org/dc/elements/1.1/"
   xmlns:cc="http://creativecommons.org/ns#"
   xmlns:rdf="http://www.w3.org/1999/02/22-rdf-syntax-ns#"
   xmlns:svg="http://www.w3.org/2000/svg"
   xmlns="http://www.w3.org/2000/svg"
   xmlns:sodipodi="http://sodipodi.sourceforge.net/DTD/sodipodi-0.dtd"
   xmlns:inkscape="http://www.inkscape.org/namespaces/inkscape"
   inkscape:version="1.0 (4035a4fb49, 2020-05-01)"
   sodipodi:docname="shutdown.svg"
   version="1.1"
   width="96"
   viewBox="0 0 96 96"
   style=""
   height="96"
   id="svg6">
  <metadata
     id="metadata8">
    <rdf:RDF>
      <cc:Work
         rdf:about="">
        <dc:format>image/svg+xml</dc:format>
        <dc:type
           rdf:resource="http://purl.org/dc/dcmitype/StillImage" />
      </cc:Work>
    </rdf:RDF>
  </metadata>
  <defs
     id="defs6" />
  <sodipodi:namedview
     inkscape:current-layer="svg6"
     inkscape:window-maximized="0"
     inkscape:window-y="23"
     inkscape:window-x="0"
     inkscape:cy="36.719131"
     inkscape:cx="50.031798"
     inkscape:zoom="6.5039092"
     showgrid="false"
     id="namedview4"
     inkscape:window-height="1057"
     inkscape:window-width="767"
     inkscape:pageshadow="2"
     inkscape:pageopacity="0"
     guidetolerance="10"
     gridtolerance="10"
     objecttolerance="10"
     borderopacity="1"
     bordercolor="#666666"
     pagecolor="#ffffff" />
  <path
     style="fill:#37c8ab"
     d="m44 0v4 32h8v-32-4h-4zm12 1v4a44 44 0 0 1 36 43 44 44 0 0 1 -44 44 44 44 0 0 1 -44-44 44 44 0 0 1 36-43v-4a48 48 0 0 0 -40 47 48 48 0 0 0 48 48 48 48 0 0 0 48-48 48 48 0 0 0 -40-47z"
     id="path4" />
</svg>
