<?xml version="1.0" encoding="UTF-8" standalone="no"?>
<svg
   xmlns:dc="http://purl.org/dc/elements/1.1/"
   xmlns:cc="http://creativecommons.org/ns#"
   xmlns:rdf="http://www.w3.org/1999/02/22-rdf-syntax-ns#"
   xmlns:svg="http://www.w3.org/2000/svg"
   xmlns="http://www.w3.org/2000/svg"
   xmlns:sodipodi="http://sodipodi.sourceforge.net/DTD/sodipodi-0.dtd"
   xmlns:inkscape="http://www.inkscape.org/namespaces/inkscape"
   inkscape:version="1.0 (4035a4fb49, 2020-05-01)"
   sodipodi:docname="suspend.svg"
   version="1.1"
   width="96"
   viewBox="0 0 96 96"
   style=""
   height="96"
   id="svg5">
  <metadata
     id="metadata8">
    <rdf:RDF>
      <cc:Work
         rdf:about="">
        <dc:format>image/svg+xml</dc:format>
        <dc:type
           rdf:resource="http://purl.org/dc/dcmitype/StillImage" />
      </cc:Work>
    </rdf:RDF>
  </metadata>
  <defs
     id="defs6" />
  <sodipodi:namedview
     inkscape:current-layer="svg5"
     inkscape:window-maximized="0"
     inkscape:window-y="23"
     inkscape:window-x="0"
     inkscape:cy="42.866266"
     inkscape:cx="35.163764"
     inkscape:zoom="4.5989583"
     showgrid="false"
     id="namedview4"
     inkscape:window-height="1057"
     inkscape:window-width="771"
     inkscape:pageshadow="2"
     inkscape:pageopacity="0"
     guidetolerance="10"
     gridtolerance="10"
     objecttolerance="10"
     borderopacity="1"
     bordercolor="#666666"
     pagecolor="#ffffff" />
  <path
     style="fill:#fafafa"
     d="m25 0c-16 9-25 26-25 44 0 29 23 52 52 52 18 0 35-9 44-25l-3-3c-7 4-16 6-24 6-26 0-47-21-47-47 0-8 2-17 6-24zm-4 7c-2 6-4 13-4 20 0 29 23 52 52 52 7 0 14-2 20-4h-1c-9 11-22 17-36 17-26 0-47.7-22-47.7-48 0-14 5.7-27 16.7-36zm60 8h7v4h-15l8-11h-8v-4h15zm-9 25h7v4h-14l7-11h-7v-4h14zm-21-16h8v4h-15l7-11h-7v-4h15z"
     id="path902-3" />
  <path
     id="path24"
     d="M 47.992108,95.802971 C 46.736032,95.712457 44.534447,95.435507 43.099696,95.187525 20.449939,91.272736 3.4717867,73.546889 0.48307464,50.694125 0.03446259,47.263877 0.03482202,40.645028 0.48380591,37.227815 1.7475284,27.609633 5.466214,18.834664 11.372419,11.533995 14.466262,7.7096914 19.449357,3.3539796 23.449172,0.97773337 l 1.524826,-0.90588216 1.494927,1.48347269 1.494928,1.4834728 -0.526806,0.8989255 c -1.662866,2.8374663 -3.702521,8.8735898 -4.551235,13.4688608 -1.588523,8.600869 -1.079862,16.617056 1.558518,24.561318 6.549029,19.719351 25.792397,32.971417 46.488403,32.014526 7.079312,-0.327315 13.85878,-1.95309 19.688885,-4.721565 l 2.406195,-1.142602 1.449843,1.449844 1.449842,1.449841 -0.40581,0.710117 c -1.791675,3.135215 -4.304729,6.382639 -7.255747,9.376041 -8.578551,8.701755 -19.765991,13.738511 -32.662766,14.705273 -3.211058,0.240707 -4.193269,0.239881 -7.611067,-0.0064 z m 10.612845,-4.241802 c 9.95161,-1.363976 19.060405,-5.90671 26.240185,-13.08649 1.995972,-1.995969 3.211684,-3.429485 2.574409,-3.035626 -0.366078,0.226247 -5.611855,1.692135 -7.919872,2.213138 -6.817613,1.538985 -14.43466,1.617653 -21.170794,0.218647 C 38.902474,73.836233 23.61671,59.310548 18.746819,40.256979 17.468693,35.256279 17.229113,33.233635 17.22724,27.427987 17.22574,22.925298 17.29413,21.829974 17.725464,19.443408 18.170798,16.97936 19.343068,12.334505 20.25382,9.4253629 L 20.580116,8.3831013 19.98972,8.8046135 c -1.031262,0.736268 -4.904737,4.8571195 -6.321254,6.7249565 -6.0696622,8.003531 -9.3812592,17.949292 -9.3812592,28.174849 0,25.366444 19.9624702,46.676385 45.2276332,48.280507 1.966543,0.124858 6.695992,-0.09562 9.090113,-0.423757 z"
     style="fill:#37c8ab;stroke-width:0.217441" />
  <path
     id="path26"
     d="m 44.383198,27.482347 c 0.172919,-0.269082 1.745816,-2.739751 3.495326,-5.490373 l 3.180929,-5.001133 -3.490313,-0.05975 -3.490314,-0.05975 V 14.91977 12.968191 h 7.417987 7.417986 l -0.337599,0.51524 c -0.185679,0.283383 -1.967591,2.754051 -3.959805,5.490374 l -3.622207,4.975134 3.934797,0.05926 3.934798,0.05926 v 1.95206 1.95206 h -7.397991 -7.397991 z"
     style="fill:#37c8ab;stroke-width:0.217441" />
  <path
     id="path28"
     d="m 73.219653,18.893446 c 0.0021,-0.08969 1.751193,-2.560363 3.886903,-5.490374 L 80.989664,8.0757788 76.994042,8.0166209 72.998418,7.9574627 V 6.0052958 4.0531288 h 7.392979 c 4.066138,0 7.392978,0.053301 7.392978,0.1184465 0,0.065146 -1.516647,2.4992143 -3.370328,5.4090415 -1.853681,2.9098272 -3.370328,5.3516562 -3.370328,5.4262872 0,0.07463 1.565572,0.135693 3.479048,0.135693 h 3.479049 v 1.956964 1.956965 h -7.392978 c -4.066139,0 -7.391272,-0.07339 -7.389185,-0.16308 z"
     style="fill:#37c8ab;stroke-width:0.217441" />
  <path
     id="path30"
     d="m 65.170559,43.926496 c 0,-0.07463 1.516648,-2.51646 3.370328,-5.426287 1.853681,-2.909827 3.370329,-5.343896 3.370329,-5.409041 0,-0.06515 -1.565572,-0.118447 -3.479049,-0.118447 h -3.479049 v -1.956965 -1.956965 h 6.97093 c 5.519336,0 6.936747,0.0566 6.806771,0.271801 -0.09029,0.14949 -1.61271,2.549676 -3.383161,5.333745 -1.770451,2.78407 -3.219002,5.15689 -3.219002,5.272934 0,0.127282 1.337115,0.210988 3.370329,0.210988 h 3.370328 v 1.956965 1.956965 h -6.849377 c -3.767157,0 -6.849377,-0.06106 -6.849377,-0.135693 z"
     style="fill:#37c8ab;stroke-width:0.217441" />
</svg>
