<?xml version="1.0" encoding="UTF-8" standalone="no"?>
<svg
   xmlns:dc="http://purl.org/dc/elements/1.1/"
   xmlns:cc="http://creativecommons.org/ns#"
   xmlns:rdf="http://www.w3.org/1999/02/22-rdf-syntax-ns#"
   xmlns:svg="http://www.w3.org/2000/svg"
   xmlns="http://www.w3.org/2000/svg"
   xmlns:sodipodi="http://sodipodi.sourceforge.net/DTD/sodipodi-0.dtd"
   xmlns:inkscape="http://www.inkscape.org/namespaces/inkscape"
   inkscape:version="1.0 (4035a4fb49, 2020-05-01)"
   sodipodi:docname="switch-user.svg"
   version="1.1"
   width="96"
   viewBox="0 0 95 96"
   style=""
   height="96"
   id="svg5">
  <metadata
     id="metadata8">
    <rdf:RDF>
      <cc:Work
         rdf:about="">
        <dc:format>image/svg+xml</dc:format>
        <dc:type
           rdf:resource="http://purl.org/dc/dcmitype/StillImage" />
      </cc:Work>
    </rdf:RDF>
  </metadata>
  <defs
     id="defs6" />
  <sodipodi:namedview
     inkscape:current-layer="svg5"
     inkscape:window-maximized="0"
     inkscape:window-y="23"
     inkscape:window-x="0"
     inkscape:cy="16.929057"
     inkscape:cx="76.230333"
     inkscape:zoom="3.2519546"
     showgrid="false"
     id="namedview4"
     inkscape:window-height="1057"
     inkscape:window-width="767"
     inkscape:pageshadow="2"
     inkscape:pageopacity="0"
     guidetolerance="10"
     gridtolerance="10"
     objecttolerance="10"
     borderopacity="1"
     bordercolor="#666666"
     pagecolor="#ffffff" />
  <path
     style="fill:#fafafa"
     d="m56 17c-5 0-10 2-13 6 1 0 3 1 4 2 2-3 5-4 9-4 6 0 12 5 12 12 0 5-4 10-9 11 0 2-1 3-1 4 8-1 13-8 13-15 0-9-7-16-15-16zm-20 47c-16 0-28.5 11-28.5 26 0 2 .3 4 .8 6h4.7 46 4c0-2 1-4 1-6 0-15-13-26-28-26zm0 4c15 0 24 9 24 22 0 0 0 1-1 2h-47c0-1 0-2 0-2 0-13 9-22 24-22zm25-16c-1 0-2 0-3 1s-2 3-2 4c1 0 3-1 5-1 12 0 22 10 22 22v2h-18c1 1 1 3 1 4h21c0-2 0-4 0-6 0-14-12-26-26-26zm-25-23c-9 0-16 7-16 15 0 9 7 16 16 16s16-7 16-16c0-8-7-15-16-15zm0 4c6 0 12 5 12 11 0 7-6 12-12 12-7 0-12-5-12-12 0-6 5-11 12-11zm12-33c-8 0-15 7-15 15v2l-6-7-3 3 9 9 3 3 2-3 8-9-2-3-7 7v-2c0-6 5-11 11-11s8 2 8 8h4c0-8-5-12-12-12z"
     id="path1011" />
  <path
     transform="translate(-0.5)"
     id="path10"
     d="m 32.184377,59.352283 c -5.190364,-1.397828 -9.407943,-5.587202 -10.977132,-10.903721 -0.586352,-1.986599 -0.672269,-6.139704 -0.166361,-8.041605 0.539554,-2.028387 2.006938,-4.587214 3.560059,-6.208038 6.353324,-6.630271 16.946785,-6.80583 23.365396,-0.387219 4.736307,4.736308 5.728701,11.044618 2.732226,17.367858 -1.860319,3.925695 -5.668396,7.040329 -10.025747,8.20008 -2.080533,0.553755 -6.382163,0.539892 -8.488441,-0.02736 z m 6.311563,-3.511267 c 3.538522,-0.671067 7.231391,-3.444102 8.769368,-6.58506 2.830655,-5.780951 0.528568,-12.019737 -5.5371,-15.005855 -1.97358,-0.971591 -2.249115,-1.023154 -5.467367,-1.023154 -3.027155,0 -3.575399,0.08736 -5.134196,0.818095 -4.797607,2.249032 -7.400664,7.209808 -6.452455,12.296761 0.89747,4.814742 4.280771,8.351839 8.966372,9.37396 2.151915,0.46942 2.934183,0.4896 4.855378,0.125253 z"
     style="fill:#37c8ab;stroke-width:0.307507" />
  <path
     transform="translate(-0.5)"
     id="path12"
     d="m 30.416687,18.932811 -5.831618,-5.837683 1.362945,-1.38874 c 0.749619,-0.763807 1.455086,-1.38874 1.567702,-1.38874 0.112617,0 1.415445,1.418378 2.895172,3.151951 1.479727,1.733573 2.811747,3.198076 2.960044,3.254453 0.148297,0.05638 0.26963,-0.793912 0.26963,-1.88953 0,-7.9366477 6.902228,-14.66461671 15.04444,-14.66461671 6.516959,0 10.968248,3.76277971 11.599853,9.80562791 l 0.199775,1.9113588 -1.967386,-0.09273 -1.967383,-0.09273 -0.179532,-1.8450437 c -0.40777,-4.1905944 -2.452108,-5.7749041 -7.508152,-5.8186212 -2.485244,-0.021489 -2.971466,0.073139 -4.766364,0.9276225 -3.866748,1.8408125 -6.249123,5.2744254 -6.647316,9.5804864 -0.119078,1.287704 -0.08777,2.229428 0.07412,2.229428 0.154155,0 1.72831,-1.452972 3.498121,-3.228827 1.769811,-1.775855 3.305706,-3.228828 3.4131,-3.228828 0.367918,0 1.859539,2.514277 1.703689,2.871738 -0.08563,0.1964 -1.770039,2.156008 -3.743134,4.354685 -1.973096,2.198678 -4.077583,4.724082 -4.676639,5.61201 -0.599056,0.887927 -1.174751,1.614414 -1.279321,1.614414 -0.104571,0 -2.814357,-2.626958 -6.021747,-5.837684 z"
     style="fill:#37c8ab;stroke-width:0.307507" />
  <path
     transform="translate(-0.5)"
     id="path14"
     d="m 58.713849,47.295409 c 0.127045,-0.295976 0.39555,-1.145974 0.596679,-1.888884 0.33652,-1.243007 0.493174,-1.398303 1.963982,-1.946963 2.076374,-0.774557 4.892227,-3.38213 5.985334,-5.542616 C 70.183223,32.138989 67.512212,24.930925 61.383282,22.058297 59.795624,21.314162 59.28165,21.23416 56.0886,21.23416 c -4.049088,0 -5.755922,0.553703 -7.540849,2.446276 l -0.999945,1.060251 -1.917882,-1.024708 -1.917882,-1.024708 1.301844,-1.263397 c 1.821706,-1.767906 4.150395,-3.020843 6.940987,-3.734556 5.766662,-1.474864 10.748346,-0.173308 14.742731,3.851807 2.228596,2.245741 3.34944,4.241282 4.158069,7.402992 0.722469,2.824824 0.761311,4.8213 0.144684,7.436671 -1.207141,5.119989 -4.820897,9.213445 -9.57891,10.850442 -2.233973,0.768599 -3.019171,0.78605 -2.707598,0.06018 z"
     style="fill:#37c8ab;stroke-width:0.307507" />
  <path
     transform="translate(-0.5)"
     id="path16"
     d=""
     style="fill:#37c8ab;stroke-width:0.307507" />
  <path
     transform="translate(-0.5)"
     id="path18"
     d="m 66.464061,82.505002 c -0.08788,-0.718798 -0.259055,-1.549068 -0.380399,-1.845044 -0.207086,-0.505113 0.319229,-0.538138 8.576234,-0.538138 h 8.79686 l -0.0045,-2.536935 c -0.0112,-6.252014 -3.073849,-12.497189 -8.151849,-16.622783 -4.6931,-3.812884 -11.321711,-5.764254 -15.941309,-4.692898 -1.143222,0.265131 -2.223379,0.482057 -2.400348,0.482057 -0.949381,0 1.110566,-3.680453 2.384931,-4.261092 1.092306,-0.497688 4.356699,-0.435656 7.136303,0.135609 5.142915,1.056972 9.757542,3.678151 13.652231,7.754676 2.743018,2.871085 4.614003,5.889305 5.808038,9.36936 1.155843,3.368743 1.509034,5.773885 1.511823,10.295129 l 0.0023,3.766966 H 77.039093 66.623835 Z"
     style="fill:#37c8ab;stroke-width:0.307507" />
  <path
     transform="translate(-0.5)"
     id="path22"
     d="m 8.5157694,94.651543 c -0.1345106,-0.634234 -0.2339639,-3.02126 -0.2210073,-5.304502 0.021553,-3.798118 0.1059545,-4.399919 0.9919304,-7.072669 1.2335095,-3.721166 2.7429395,-6.268563 5.4128515,-9.135031 5.907322,-6.342212 13.820771,-9.362781 23.372428,-8.921275 12.15682,0.561925 22.352962,8.202239 25.401052,19.033872 0.973433,3.459166 1.118917,6.797846 0.432622,9.928051 L 63.33018,95.804696 H 36.045258 8.760334 Z M 59.95946,91.469739 C 61.144492,90.160292 60.202141,83.630424 58.255232,79.660559 55.540176,74.1244 49.944348,70.054405 43.019537,68.579227 39.812918,67.896128 33.096904,67.876485 30.07952,68.54138 c -8.811276,1.941606 -14.740728,7.287793 -16.898412,15.236159 -0.257648,0.949113 -0.554455,3.213227 -0.659571,5.031364 l -0.191119,3.305705 H 35.85314 c 23.49518,0 23.523406,-7.69e-4 24.10632,-0.644869 z"
     style="fill:#37c8ab;stroke-width:0.307507" />
</svg>
